<svg width="4220" height="6208" xmlns="http://www.w3.org/2000/svg" xmlns:xlink="http://www.w3.org/1999/xlink" xml:space="preserve" overflow="hidden"><g transform="translate(-93 253)"><path d="M96.2496-250.155 977.969-250.155 977.969 121.095 96.2496 121.095Z" fill="#4472C4" fill-rule="evenodd"/><path d="M977.969-250.155 2022.11-250.155 2022.11 121.095 977.969 121.095Z" fill="#4472C4" fill-rule="evenodd"/><path d="M2022.11-250.155 3425.71-250.155 3425.71 121.095 2022.11 121.095Z" fill="#4472C4" fill-rule="evenodd"/><path d="M3425.71-250.155 4303.75-250.155 4303.75 121.095 3425.71 121.095Z" fill="#4472C4" fill-rule="evenodd"/><path d="M96.2496 121.095 977.969 121.095 977.969 489.843 96.2496 489.843Z" fill="#4472C4" fill-rule="evenodd"/><path d="M977.969 121.095 2022.11 121.095 2022.11 489.843 977.969 489.843Z" fill="#CFD5EA" fill-rule="evenodd"/><path d="M2022.11 121.095 3425.71 121.095 3425.71 489.843 2022.11 489.843Z" fill="#CFD5EA" fill-rule="evenodd"/><path d="M3425.71 121.095 4303.75 121.095 4303.75 489.843 3425.71 489.843Z" fill="#CFD5EA" fill-rule="evenodd"/><path d="M96.2496 489.843 977.969 489.843 977.969 2360.83 96.2496 2360.83Z" fill="#4472C4" fill-rule="evenodd"/><path d="M977.969 489.843 2022.11 489.843 2022.11 1056.59 977.969 1056.59Z" fill="#E9EBF5" fill-rule="evenodd"/><path d="M2022.11 489.843 3425.71 489.843 3425.71 1056.59 2022.11 1056.59Z" fill="#E9EBF5" fill-rule="evenodd"/><path d="M3425.71 489.843 4303.75 489.843 4303.75 1056.59 3425.71 1056.59Z" fill="#E9EBF5" fill-rule="evenodd"/><path d="M977.969 1056.59 2022.11 1056.59 2022.11 1425.34 977.969 1425.34Z" fill="#CFD5EA" fill-rule="evenodd"/><path d="M2022.11 1056.59 3425.71 1056.59 3425.71 1425.34 2022.11 1425.34Z" fill="#CFD5EA" fill-rule="evenodd"/><path d="M3425.71 1056.59 4303.75 1056.59 4303.75 1425.34 3425.71 1425.34Z" fill="#CFD5EA" fill-rule="evenodd"/><path d="M977.969 1425.34 2022.11 1425.34 2022.11 1992.09 977.969 1992.09Z" fill="#E9EBF5" fill-rule="evenodd"/><path d="M2022.11 1425.34 3425.71 1425.34 3425.71 1992.09 2022.11 1992.09Z" fill="#E9EBF5" fill-rule="evenodd"/><path d="M3425.71 1425.34 4303.75 1425.34 4303.75 1992.09 3425.71 1992.09Z" fill="#E9EBF5" fill-rule="evenodd"/><path d="M977.969 1992.09 2022.11 1992.09 2022.11 2360.83 977.969 2360.83Z" fill="#CFD5EA" fill-rule="evenodd"/><path d="M2022.11 1992.09 3425.71 1992.09 3425.71 2360.83 2022.11 2360.83Z" fill="#CFD5EA" fill-rule="evenodd"/><path d="M3425.71 1992.09 4303.75 1992.09 4303.75 2360.83 3425.71 2360.83Z" fill="#CFD5EA" fill-rule="evenodd"/><path d="M96.2496 2360.83 977.969 2360.83 977.969 3863.08 96.2496 3863.08Z" fill="#4472C4" fill-rule="evenodd"/><path d="M977.969 2360.83 2022.11 2360.83 2022.11 2927.58 977.969 2927.58Z" fill="#E9EBF5" fill-rule="evenodd"/><path d="M2022.11 2360.83 3425.71 2360.83 3425.71 2927.58 2022.11 2927.58Z" fill="#E9EBF5" fill-rule="evenodd"/><path d="M3425.71 2360.83 4303.75 2360.83 4303.75 2927.58 3425.71 2927.58Z" fill="#E9EBF5" fill-rule="evenodd"/><path d="M977.969 2927.58 2022.11 2927.58 2022.11 3296.33 977.969 3296.33Z" fill="#CFD5EA" fill-rule="evenodd"/><path d="M2022.11 2927.58 3425.71 2927.58 3425.71 3296.33 2022.11 3296.33Z" fill="#CFD5EA" fill-rule="evenodd"/><path d="M3425.71 2927.58 4303.75 2927.58 4303.75 3296.33 3425.71 3296.33Z" fill="#CFD5EA" fill-rule="evenodd"/><path d="M977.969 3296.33 2022.11 3296.33 2022.11 3863.08 977.969 3863.08Z" fill="#E9EBF5" fill-rule="evenodd"/><path d="M2022.11 3296.33 3425.71 3296.33 3425.71 3863.08 2022.11 3863.08Z" fill="#E9EBF5" fill-rule="evenodd"/><path d="M3425.71 3296.33 4303.75 3296.33 4303.75 3863.08 3425.71 3863.08Z" fill="#E9EBF5" fill-rule="evenodd"/><path d="M96.2496 3863.08 977.969 3863.08 977.969 5338.07 96.2496 5338.07Z" fill="#4472C4" fill-rule="evenodd"/><path d="M977.969 3863.08 2022.11 3863.08 2022.11 4231.83 977.969 4231.83Z" fill="#CFD5EA" fill-rule="evenodd"/><path d="M2022.11 3863.08 3425.71 3863.08 3425.71 4231.83 2022.11 4231.83Z" fill="#CFD5EA" fill-rule="evenodd"/><path d="M3425.71 3863.08 4303.75 3863.08 4303.75 4231.83 3425.71 4231.83Z" fill="#CFD5EA" fill-rule="evenodd"/><path d="M977.969 4231.83 2022.11 4231.83 2022.11 4600.57 977.969 4600.57Z" fill="#E9EBF5" fill-rule="evenodd"/><path d="M2022.11 4231.83 3425.71 4231.83 3425.71 4600.57 2022.11 4600.57Z" fill="#E9EBF5" fill-rule="evenodd"/><path d="M3425.71 4231.83 4303.75 4231.83 4303.75 4600.57 3425.71 4600.57Z" fill="#E9EBF5" fill-rule="evenodd"/><path d="M977.969 4600.57 2022.11 4600.57 2022.11 4969.32 977.969 4969.32Z" fill="#CFD5EA" fill-rule="evenodd"/><path d="M2022.11 4600.57 3425.71 4600.57 3425.71 4969.32 2022.11 4969.32Z" fill="#CFD5EA" fill-rule="evenodd"/><path d="M3425.71 4600.57 4303.75 4600.57 4303.75 4969.32 3425.71 4969.32Z" fill="#CFD5EA" fill-rule="evenodd"/><path d="M977.969 4969.32 2022.11 4969.32 2022.11 5338.07 977.969 5338.07Z" fill="#E9EBF5" fill-rule="evenodd"/><path d="M2022.11 4969.32 3425.71 4969.32 3425.71 5338.07 2022.11 5338.07Z" fill="#E9EBF5" fill-rule="evenodd"/><path d="M3425.71 4969.32 4303.75 4969.32 4303.75 5338.07 3425.71 5338.07Z" fill="#E9EBF5" fill-rule="evenodd"/><path d="M96.2496 5338.07 977.969 5338.07 977.969 5904.82 96.2496 5904.82Z" fill="#4472C4" fill-rule="evenodd"/><path d="M977.969 5338.07 2022.11 5338.07 2022.11 5904.82 977.969 5904.82Z" fill="#CFD5EA" fill-rule="evenodd"/><path d="M2022.11 5338.07 3425.71 5338.07 3425.71 5904.82 2022.11 5904.82Z" fill="#CFD5EA" fill-rule="evenodd"/><path d="M3425.71 5338.07 4303.75 5338.07 4303.75 5904.82 3425.71 5904.82Z" fill="#CFD5EA" fill-rule="evenodd"/><path d="M977.969-252.446 977.969 5907.11" stroke="#FFFFFF" stroke-width="4.58333" stroke-linejoin="round" stroke-miterlimit="10" fill="none" fill-rule="evenodd"/><path d="M2022.11-252.446 2022.11 5907.11" stroke="#FFFFFF" stroke-width="4.58333" stroke-linejoin="round" stroke-miterlimit="10" fill="none" fill-rule="evenodd"/><path d="M3425.71-252.446 3425.71 5907.11" stroke="#FFFFFF" stroke-width="4.58333" stroke-linejoin="round" stroke-miterlimit="10" fill="none" fill-rule="evenodd"/><path d="M93.958 121.095 4306.04 121.095" stroke="#FFFFFF" stroke-width="13.75" stroke-linejoin="round" stroke-miterlimit="10" fill="none" fill-rule="evenodd"/><path d="M93.958 489.843 4306.04 489.843" stroke="#FFFFFF" stroke-width="4.58333" stroke-linejoin="round" stroke-miterlimit="10" fill="none" fill-rule="evenodd"/><path d="M975.677 1056.59 4306.04 1056.59" stroke="#FFFFFF" stroke-width="4.58333" stroke-linejoin="round" stroke-miterlimit="10" fill="none" fill-rule="evenodd"/><path d="M975.677 1425.34 4306.04 1425.34" stroke="#FFFFFF" stroke-width="4.58333" stroke-linejoin="round" stroke-miterlimit="10" fill="none" fill-rule="evenodd"/><path d="M975.677 1992.09 4306.04 1992.09" stroke="#FFFFFF" stroke-width="4.58333" stroke-linejoin="round" stroke-miterlimit="10" fill="none" fill-rule="evenodd"/><path d="M93.958 2360.83 4306.04 2360.83" stroke="#FFFFFF" stroke-width="4.58333" stroke-linejoin="round" stroke-miterlimit="10" fill="none" fill-rule="evenodd"/><path d="M975.677 2927.58 4306.04 2927.58" stroke="#FFFFFF" stroke-width="4.58333" stroke-linejoin="round" stroke-miterlimit="10" fill="none" fill-rule="evenodd"/><path d="M975.677 3296.33 4306.04 3296.33" stroke="#FFFFFF" stroke-width="4.58333" stroke-linejoin="round" stroke-miterlimit="10" fill="none" fill-rule="evenodd"/><path d="M93.958 3863.08 4306.04 3863.08" stroke="#FFFFFF" stroke-width="4.58333" stroke-linejoin="round" stroke-miterlimit="10" fill="none" fill-rule="evenodd"/><path d="M975.677 4231.83 4306.04 4231.83" stroke="#FFFFFF" stroke-width="4.58333" stroke-linejoin="round" stroke-miterlimit="10" fill="none" fill-rule="evenodd"/><path d="M975.677 4600.57 4306.04 4600.57" stroke="#FFFFFF" stroke-width="4.58333" stroke-linejoin="round" stroke-miterlimit="10" fill="none" fill-rule="evenodd"/><path d="M975.677 4969.32 4306.04 4969.32" stroke="#FFFFFF" stroke-width="4.58333" stroke-linejoin="round" stroke-miterlimit="10" fill="none" fill-rule="evenodd"/><path d="M93.958 5338.07 4306.04 5338.07" stroke="#FFFFFF" stroke-width="4.58333" stroke-linejoin="round" stroke-miterlimit="10" fill="none" fill-rule="evenodd"/><path d="M96.2496-252.446 96.2496 5907.11" stroke="#FFFFFF" stroke-width="4.58333" stroke-linejoin="round" stroke-miterlimit="10" fill="none" fill-rule="evenodd"/><path d="M4303.75-252.446 4303.75 5907.11" stroke="#FFFFFF" stroke-width="4.58333" stroke-linejoin="round" stroke-miterlimit="10" fill="none" fill-rule="evenodd"/><path d="M93.958-250.155 4306.04-250.155" stroke="#FFFFFF" stroke-width="4.58333" stroke-linejoin="round" stroke-miterlimit="10" fill="none" fill-rule="evenodd"/><path d="M93.958 5904.82 4306.04 5904.82" stroke="#FFFFFF" stroke-width="4.58333" stroke-linejoin="round" stroke-miterlimit="10" fill="none" fill-rule="evenodd"/><text fill="#FFFFFF" font-family="DengXian,DengXian_MSFontService,sans-serif" font-weight="700" font-size="83" transform="matrix(1 0 0 1 3704.6 -37)">Location</text><text fill="#FFFFFF" font-family="DengXian,DengXian_MSFontService,sans-serif" font-weight="700" font-size="83" transform="matrix(1 0 0 1 2391.33 -37)">Purpose/Function</text><text fill="#FFFFFF" font-family="DengXian,DengXian_MSFontService,sans-serif" font-weight="700" font-size="83" transform="matrix(1 0 0 1 1407.8 -37)">Time</text><text fill="#FFFFFF" font-family="DengXian,DengXian_MSFontService,sans-serif" font-weight="700" font-size="83" transform="matrix(1 0 0 1 449.166 -37)">Date</text><g><text font-family="DengXian,DengXian_MSFontService,sans-serif" font-weight="400" font-size="83" transform="matrix(1 0 0 1 3486.03 270)">DoubleTree by Hilton </text></g><text font-family="DengXian,DengXian_MSFontService,sans-serif" font-weight="400" font-size="83" transform="matrix(1 0 0 1 3620.67 468)">Kuala Lumpur</text><text font-family="DengXian,DengXian_MSFontService,sans-serif" font-weight="400" font-size="83" transform="matrix(1 0 0 1 2387.04 369)">Onsite Registration</text><text font-family="DengXian,DengXian_MSFontService,sans-serif" font-weight="400" font-size="83" transform="matrix(1 0 0 1 1286.91 369)">14:00</text><text font-family="DengXian,DengXian_MSFontService,sans-serif" font-weight="400" font-size="83" transform="matrix(1 0 0 1 1479.41 369)">-</text><text font-family="DengXian,DengXian_MSFontService,sans-serif" font-weight="400" font-size="83" transform="matrix(1 0 0 1 1520.66 369)">20:00</text><text fill="#FFFFFF" font-family="DengXian,DengXian_MSFontService,sans-serif" font-weight="700" font-size="83" transform="matrix(1 0 0 1 304.505 350)">07 July 2024</text><g><text font-family="DengXian,DengXian_MSFontService,sans-serif" font-weight="400" font-size="83" transform="matrix(1 0 0 1 3486.03 738)">DoubleTree by Hilton </text></g><text font-family="DengXian,DengXian_MSFontService,sans-serif" font-weight="400" font-size="83" transform="matrix(1 0 0 1 3620.67 936)">Kuala Lumpur</text><text font-family="DengXian,DengXian_MSFontService,sans-serif" font-weight="400" font-size="83" transform="matrix(1 0 0 1 2366.98 639)">Opening Ceremony,</text><text font-family="DengXian,DengXian_MSFontService,sans-serif" font-weight="400" font-size="83" transform="matrix(1 0 0 1 2485.58 837)">Group Photo,</text><text font-family="DengXian,DengXian_MSFontService,sans-serif" font-weight="400" font-size="83" transform="matrix(1 0 0 1 2436.31 1035)">Plenary Lectures</text><text font-family="DengXian,DengXian_MSFontService,sans-serif" font-weight="400" font-size="83" transform="matrix(1 0 0 1 1286.91 837)">08:00</text><text font-family="DengXian,DengXian_MSFontService,sans-serif" font-weight="400" font-size="83" transform="matrix(1 0 0 1 1479.41 837)">-</text><text font-family="DengXian,DengXian_MSFontService,sans-serif" font-weight="400" font-size="83" transform="matrix(1 0 0 1 1520.66 837)">12:00</text><text fill="#FFFFFF" font-family="DengXian,DengXian_MSFontService,sans-serif" font-weight="700" font-size="83" transform="matrix(1 0 0 1 304.505 1470)">08 July 2024</text><g><text font-family="DengXian,DengXian_MSFontService,sans-serif" font-weight="400" font-size="83" transform="matrix(1 0 0 1 3486.03 1206)">DoubleTree by Hilton </text></g><text font-family="DengXian,DengXian_MSFontService,sans-serif" font-weight="400" font-size="83" transform="matrix(1 0 0 1 3620.67 1404)">Kuala Lumpur</text><text font-family="DengXian,DengXian_MSFontService,sans-serif" font-weight="400" font-size="83" transform="matrix(1 0 0 1 2618.21 1305)">Lunch</text><text font-family="DengXian,DengXian_MSFontService,sans-serif" font-weight="400" font-size="83" transform="matrix(1 0 0 1 1286.91 1305)">12:00</text><text font-family="DengXian,DengXian_MSFontService,sans-serif" font-weight="400" font-size="83" transform="matrix(1 0 0 1 1479.41 1305)">-</text><text font-family="DengXian,DengXian_MSFontService,sans-serif" font-weight="400" font-size="83" transform="matrix(1 0 0 1 1520.66 1305)">13:30</text><text font-family="DengXian,DengXian_MSFontService,sans-serif" font-weight="400" font-size="83" transform="matrix(1 0 0 1 3666.5 1575)">Rooms 1</text><text font-family="DengXian,DengXian_MSFontService,sans-serif" font-weight="400" font-size="83" transform="matrix(1 0 0 1 3978.17 1575)">-</text><text font-family="DengXian,DengXian_MSFontService,sans-serif" font-weight="400" font-size="83" transform="matrix(1 0 0 1 4019.42 1575)">6</text><g><text font-family="DengXian,DengXian_MSFontService,sans-serif" font-weight="400" font-size="83" transform="matrix(1 0 0 1 3486.03 1773)">DoubleTree by Hilton </text></g><text font-family="DengXian,DengXian_MSFontService,sans-serif" font-weight="400" font-size="83" transform="matrix(1 0 0 1 3620.67 1971)">Kuala Lumpur</text><text font-family="DengXian,DengXian_MSFontService,sans-serif" font-weight="400" font-size="83" transform="matrix(1 0 0 1 2419.98 1773)">Academic Report</text><text font-family="DengXian,DengXian_MSFontService,sans-serif" font-weight="400" font-size="83" transform="matrix(1 0 0 1 1286.91 1773)">14:00</text><text font-family="DengXian,DengXian_MSFontService,sans-serif" font-weight="400" font-size="83" transform="matrix(1 0 0 1 1479.41 1773)">-</text><text font-family="DengXian,DengXian_MSFontService,sans-serif" font-weight="400" font-size="83" transform="matrix(1 0 0 1 1520.66 1773)">18:00</text><g><text font-family="DengXian,DengXian_MSFontService,sans-serif" font-weight="400" font-size="83" transform="matrix(1 0 0 1 3486.03 2141)">DoubleTree by Hilton </text></g><text font-family="DengXian,DengXian_MSFontService,sans-serif" font-weight="400" font-size="83" transform="matrix(1 0 0 1 3620.67 2339)">Kuala Lumpur</text><text font-family="DengXian,DengXian_MSFontService,sans-serif" font-weight="400" font-size="83" transform="matrix(1 0 0 1 2576.96 2240)">Banquet</text><text font-family="DengXian,DengXian_MSFontService,sans-serif" font-weight="400" font-size="83" transform="matrix(1 0 0 1 1286.91 2240)">19:00</text><text font-family="DengXian,DengXian_MSFontService,sans-serif" font-weight="400" font-size="83" transform="matrix(1 0 0 1 1479.41 2240)">-</text><text font-family="DengXian,DengXian_MSFontService,sans-serif" font-weight="400" font-size="83" transform="matrix(1 0 0 1 1520.66 2240)">21:00</text><text font-family="DengXian,DengXian_MSFontService,sans-serif" font-weight="400" font-size="83" transform="matrix(1 0 0 1 3666.5 2510)">Rooms 1</text><text font-family="DengXian,DengXian_MSFontService,sans-serif" font-weight="400" font-size="83" transform="matrix(1 0 0 1 3978.17 2510)">-</text><text font-family="DengXian,DengXian_MSFontService,sans-serif" font-weight="400" font-size="83" transform="matrix(1 0 0 1 4019.42 2510)">6</text><g><text font-family="DengXian,DengXian_MSFontService,sans-serif" font-weight="400" font-size="83" transform="matrix(1 0 0 1 3486.03 2708)">DoubleTree by Hilton </text></g><text font-family="DengXian,DengXian_MSFontService,sans-serif" font-weight="400" font-size="83" transform="matrix(1 0 0 1 3620.67 2906)">Kuala Lumpur</text><text font-family="DengXian,DengXian_MSFontService,sans-serif" font-weight="400" font-size="83" transform="matrix(1 0 0 1 2419.98 2708)">Academic Report</text><text font-family="DengXian,DengXian_MSFontService,sans-serif" font-weight="400" font-size="83" transform="matrix(1 0 0 1 1286.91 2708)">08:00</text><text font-family="DengXian,DengXian_MSFontService,sans-serif" font-weight="400" font-size="83" transform="matrix(1 0 0 1 1479.41 2708)">-</text><text font-family="DengXian,DengXian_MSFontService,sans-serif" font-weight="400" font-size="83" transform="matrix(1 0 0 1 1520.66 2708)">12:00</text><text fill="#FFFFFF" font-family="DengXian,DengXian_MSFontService,sans-serif" font-weight="700" font-size="83" transform="matrix(1 0 0 1 304.505 3156)">09 July 2024</text><g><text font-family="DengXian,DengXian_MSFontService,sans-serif" font-weight="400" font-size="83" transform="matrix(1 0 0 1 3486.03 3077)">DoubleTree by Hilton </text></g><text font-family="DengXian,DengXian_MSFontService,sans-serif" font-weight="400" font-size="83" transform="matrix(1 0 0 1 3620.67 3275)">Kuala Lumpur</text><text font-family="DengXian,DengXian_MSFontService,sans-serif" font-weight="400" font-size="83" transform="matrix(1 0 0 1 2618.21 3176)">Lunch</text><text font-family="DengXian,DengXian_MSFontService,sans-serif" font-weight="400" font-size="83" transform="matrix(1 0 0 1 1286.91 3176)">12:00</text><text font-family="DengXian,DengXian_MSFontService,sans-serif" font-weight="400" font-size="83" transform="matrix(1 0 0 1 1479.41 3176)">-</text><text font-family="DengXian,DengXian_MSFontService,sans-serif" font-weight="400" font-size="83" transform="matrix(1 0 0 1 1520.66 3176)">13:30</text><text font-family="DengXian,DengXian_MSFontService,sans-serif" font-weight="400" font-size="83" transform="matrix(1 0 0 1 3666.5 3446)">Rooms 1</text><text font-family="DengXian,DengXian_MSFontService,sans-serif" font-weight="400" font-size="83" transform="matrix(1 0 0 1 3978.17 3446)">-</text><text font-family="DengXian,DengXian_MSFontService,sans-serif" font-weight="400" font-size="83" transform="matrix(1 0 0 1 4019.42 3446)">6</text><g><text font-family="DengXian,DengXian_MSFontService,sans-serif" font-weight="400" font-size="83" transform="matrix(1 0 0 1 3486.03 3644)">DoubleTree by Hilton </text></g><text font-family="DengXian,DengXian_MSFontService,sans-serif" font-weight="400" font-size="83" transform="matrix(1 0 0 1 3620.67 3842)">Kuala Lumpur</text><text font-family="DengXian,DengXian_MSFontService,sans-serif" font-weight="400" font-size="83" transform="matrix(1 0 0 1 2419.98 3644)">Academic Report</text><text font-family="DengXian,DengXian_MSFontService,sans-serif" font-weight="400" font-size="83" transform="matrix(1 0 0 1 1286.91 3644)">14:00</text><text font-family="DengXian,DengXian_MSFontService,sans-serif" font-weight="400" font-size="83" transform="matrix(1 0 0 1 1479.41 3644)">-</text><text font-family="DengXian,DengXian_MSFontService,sans-serif" font-weight="400" font-size="83" transform="matrix(1 0 0 1 1520.66 3644)">18:00</text><g><text font-family="DengXian,DengXian_MSFontService,sans-serif" font-weight="400" font-size="83" transform="matrix(1 0 0 1 3486.03 4012)">DoubleTree by Hilton </text></g><text font-family="DengXian,DengXian_MSFontService,sans-serif" font-weight="400" font-size="83" transform="matrix(1 0 0 1 3620.67 4210)">Kuala Lumpur</text><text font-family="DengXian,DengXian_MSFontService,sans-serif" font-weight="400" font-size="83" transform="matrix(1 0 0 1 2142.69 4111)">Academic/Committee Discussion</text><text font-family="DengXian,DengXian_MSFontService,sans-serif" font-weight="400" font-size="83" transform="matrix(1 0 0 1 1286.91 4111)">08:00</text><text font-family="DengXian,DengXian_MSFontService,sans-serif" font-weight="400" font-size="83" transform="matrix(1 0 0 1 1479.41 4111)">-</text><text font-family="DengXian,DengXian_MSFontService,sans-serif" font-weight="400" font-size="83" transform="matrix(1 0 0 1 1520.66 4111)">12:00</text><text fill="#FFFFFF" font-family="DengXian,DengXian_MSFontService,sans-serif" font-weight="700" font-size="83" transform="matrix(1 0 0 1 304.505 4645)">10 July 2024</text><g><text font-family="DengXian,DengXian_MSFontService,sans-serif" font-weight="400" font-size="83" transform="matrix(1 0 0 1 3486.03 4381)">DoubleTree by Hilton </text></g><text font-family="DengXian,DengXian_MSFontService,sans-serif" font-weight="400" font-size="83" transform="matrix(1 0 0 1 3620.67 4579)">Kuala Lumpur</text><text font-family="DengXian,DengXian_MSFontService,sans-serif" font-weight="400" font-size="83" transform="matrix(1 0 0 1 2618.21 4480)">Lunch</text><text font-family="DengXian,DengXian_MSFontService,sans-serif" font-weight="400" font-size="83" transform="matrix(1 0 0 1 1286.91 4480)">12:00</text><text font-family="DengXian,DengXian_MSFontService,sans-serif" font-weight="400" font-size="83" transform="matrix(1 0 0 1 1479.41 4480)">-</text><text font-family="DengXian,DengXian_MSFontService,sans-serif" font-weight="400" font-size="83" transform="matrix(1 0 0 1 1520.66 4480)">13:30</text><g><text font-family="DengXian,DengXian_MSFontService,sans-serif" font-weight="400" font-size="83" transform="matrix(1 0 0 1 3486.03 4750)">DoubleTree by Hilton </text></g><text font-family="DengXian,DengXian_MSFontService,sans-serif" font-weight="400" font-size="83" transform="matrix(1 0 0 1 3620.67 4948)">Kuala Lumpur</text><g><text font-family="DengXian,DengXian_MSFontService,sans-serif" font-weight="400" font-size="83" transform="matrix(1 0 0 1 2060.47 4750)">CMMM20244 Conference </text></g><g><text font-family="DengXian,DengXian_MSFontService,sans-serif" font-weight="400" font-size="83" transform="matrix(1 0 0 1 2994.33 4750)">Committee </text></g><text font-family="DengXian,DengXian_MSFontService,sans-serif" font-weight="400" font-size="83" transform="matrix(1 0 0 1 2576.97 4948)">Meeting</text><text font-family="DengXian,DengXian_MSFontService,sans-serif" font-weight="400" font-size="83" transform="matrix(1 0 0 1 1286.91 4849)">14:00</text><text font-family="DengXian,DengXian_MSFontService,sans-serif" font-weight="400" font-size="83" transform="matrix(1 0 0 1 1479.41 4849)">-</text><text font-family="DengXian,DengXian_MSFontService,sans-serif" font-weight="400" font-size="83" transform="matrix(1 0 0 1 1520.66 4849)">15:00</text><g><text font-family="DengXian,DengXian_MSFontService,sans-serif" font-weight="400" font-size="83" transform="matrix(1 0 0 1 3486.03 5119)">DoubleTree by Hilton </text></g><text font-family="DengXian,DengXian_MSFontService,sans-serif" font-weight="400" font-size="83" transform="matrix(1 0 0 1 3620.67 5317)">Kuala Lumpur</text><text font-family="DengXian,DengXian_MSFontService,sans-serif" font-weight="400" font-size="83" transform="matrix(1 0 0 1 2289.94 5119)">CMMM2024 Conference </text><text font-family="DengXian,DengXian_MSFontService,sans-serif" font-weight="400" font-size="83" transform="matrix(1 0 0 1 2182.51 5317)">Closing/Certificate Distribution</text><text font-family="DengXian,DengXian_MSFontService,sans-serif" font-weight="400" font-size="83" transform="matrix(1 0 0 1 1286.91 5218)">15:00</text><text font-family="DengXian,DengXian_MSFontService,sans-serif" font-weight="400" font-size="83" transform="matrix(1 0 0 1 1479.41 5218)">-</text><text font-family="DengXian,DengXian_MSFontService,sans-serif" font-weight="400" font-size="83" transform="matrix(1 0 0 1 1520.66 5218)">17:00</text><text font-family="DengXian,DengXian_MSFontService,sans-serif" font-weight="400" font-size="83" transform="matrix(1 0 0 1 3523.26 5487)">Universiti</text><text font-family="DengXian,DengXian_MSFontService,sans-serif" font-weight="400" font-size="83" transform="matrix(1 0 0 1 3869.88 5487)">Malaya &amp; </text><g><text font-family="DengXian,DengXian_MSFontService,sans-serif" font-weight="400" font-size="83" transform="matrix(1 0 0 1 3465.7 5685)">Universiti</text></g><text font-family="DengXian,DengXian_MSFontService,sans-serif" font-weight="400" font-size="83" transform="matrix(1 0 0 1 3812.31 5685)">Tunku</text><g><text font-family="DengXian,DengXian_MSFontService,sans-serif" font-weight="400" font-size="83" transform="matrix(1 0 0 1 4052.36 5685)">Abdul </text></g><text font-family="DengXian,DengXian_MSFontService,sans-serif" font-weight="400" font-size="83" transform="matrix(1 0 0 1 3719.77 5883)">Rahman</text><text font-family="DengXian,DengXian_MSFontService,sans-serif" font-weight="400" font-size="83" transform="matrix(1 0 0 1 2330.62 5487)">Visit </text><text font-family="DengXian,DengXian_MSFontService,sans-serif" font-weight="400" font-size="83" transform="matrix(1 0 0 1 2500.2 5487)">Universiti</text><text font-family="DengXian,DengXian_MSFontService,sans-serif" font-weight="400" font-size="83" transform="matrix(1 0 0 1 2846.81 5487)">Malaya, </text><text font-family="DengXian,DengXian_MSFontService,sans-serif" font-weight="400" font-size="83" transform="matrix(1 0 0 1 2168.76 5685)">Universiti</text><text font-family="DengXian,DengXian_MSFontService,sans-serif" font-weight="400" font-size="83" transform="matrix(1 0 0 1 2515.37 5685)">Tunku</text><text font-family="DengXian,DengXian_MSFontService,sans-serif" font-weight="400" font-size="83" transform="matrix(1 0 0 1 2755.42 5685)">Abdul Rahman </text><text font-family="DengXian,DengXian_MSFontService,sans-serif" font-weight="400" font-size="83" transform="matrix(1 0 0 1 2191.97 5883)">and </text><text font-family="DengXian,DengXian_MSFontService,sans-serif" font-weight="400" font-size="83" transform="matrix(1 0 0 1 2348.38 5883)">Other Academic Activities </text><text font-family="DengXian,DengXian_MSFontService,sans-serif" font-weight="400" font-size="83" transform="matrix(1 0 0 1 1430.14 5685)">TBC</text><text fill="#FFFFFF" font-family="DengXian,DengXian_MSFontService,sans-serif" font-weight="700" font-size="83" transform="matrix(1 0 0 1 201.953 5666)">11 &amp; 12 July 2024</text></g></svg>