<svg width="1181" height="1104" xmlns="http://www.w3.org/2000/svg" xmlns:xlink="http://www.w3.org/1999/xlink" xml:space="preserve" overflow="hidden"><g transform="translate(-2923 -138)"><path d="M2925.69 140.673 3161.11 140.673 3161.11 271.42 2925.69 271.42Z" fill="#4472C4" fill-rule="evenodd"/><path d="M3161.11 140.673 3443.43 140.673 3443.43 271.42 3161.11 271.42Z" fill="#4472C4" fill-rule="evenodd"/><path d="M3443.43 140.673 3768.79 140.673 3768.79 271.42 3443.43 271.42Z" fill="#4472C4" fill-rule="evenodd"/><path d="M3768.79 140.673 4094.14 140.673 4094.14 271.42 3768.79 271.42Z" fill="#4472C4" fill-rule="evenodd"/><path d="M2925.69 271.42 3161.11 271.42 3161.11 1015.83 2925.69 1015.83Z" fill="#4472C4" fill-rule="evenodd"/><path d="M3161.11 271.42 3443.43 271.42 3443.43 457.522 3161.11 457.522Z" fill="#CFD5EA" fill-rule="evenodd"/><path d="M3443.43 271.42 3768.79 271.42 3768.79 457.522 3443.43 457.522Z" fill="#CFD5EA" fill-rule="evenodd"/><path d="M3768.79 271.42 4094.14 271.42 4094.14 457.522 3768.79 457.522Z" fill="#CFD5EA" fill-rule="evenodd"/><path d="M3161.11 457.522 3443.43 457.522 3443.43 643.623 3161.11 643.623Z" fill="#E9EBF5" fill-rule="evenodd"/><path d="M3443.43 457.522 3768.79 457.522 3768.79 643.623 3443.43 643.623Z" fill="#E9EBF5" fill-rule="evenodd"/><path d="M3768.79 457.522 4094.14 457.522 4094.14 643.623 3768.79 643.623Z" fill="#E9EBF5" fill-rule="evenodd"/><path d="M3161.11 643.623 3443.43 643.623 3443.43 829.724 3161.11 829.724Z" fill="#CFD5EA" fill-rule="evenodd"/><path d="M3443.43 643.623 3768.79 643.623 3768.79 829.724 3443.43 829.724Z" fill="#CFD5EA" fill-rule="evenodd"/><path d="M3768.79 643.623 4094.14 643.623 4094.14 829.724 3768.79 829.724Z" fill="#CFD5EA" fill-rule="evenodd"/><path d="M3161.11 829.724 3443.43 829.724 3443.43 1015.83 3161.11 1015.83Z" fill="#E9EBF5" fill-rule="evenodd"/><path d="M3443.43 829.724 3768.79 829.724 3768.79 1015.83 3443.43 1015.83Z" fill="#E9EBF5" fill-rule="evenodd"/><path d="M3768.79 829.724 4094.14 829.724 4094.14 1015.83 3768.79 1015.83Z" fill="#E9EBF5" fill-rule="evenodd"/><path d="M2925.69 1015.83 3161.11 1015.83 3161.11 1236.99 2925.69 1236.99Z" fill="#4472C4" fill-rule="evenodd"/><path d="M3161.11 1015.83 3443.43 1015.83 3443.43 1236.99 3161.11 1236.99Z" fill="#CFD5EA" fill-rule="evenodd"/><path d="M3443.43 1015.83 3768.79 1015.83 3768.79 1236.99 3443.43 1236.99Z" fill="#CFD5EA" fill-rule="evenodd"/><path d="M3768.79 1015.83 4094.14 1015.83 4094.14 1236.99 3768.79 1236.99Z" fill="#CFD5EA" fill-rule="evenodd"/><path d="M3161.11 138.382 3161.11 1239.29" stroke="#FFFFFF" stroke-width="4.58333" stroke-linejoin="round" stroke-miterlimit="10" fill="none" fill-rule="evenodd"/><path d="M3443.43 138.382 3443.43 1239.29" stroke="#FFFFFF" stroke-width="4.58333" stroke-linejoin="round" stroke-miterlimit="10" fill="none" fill-rule="evenodd"/><path d="M3768.79 138.382 3768.79 1239.29" stroke="#FFFFFF" stroke-width="4.58333" stroke-linejoin="round" stroke-miterlimit="10" fill="none" fill-rule="evenodd"/><path d="M2923.4 271.42 4096.44 271.42" stroke="#FFFFFF" stroke-width="13.75" stroke-linejoin="round" stroke-miterlimit="10" fill="none" fill-rule="evenodd"/><path d="M3158.81 457.522 4096.44 457.522" stroke="#FFFFFF" stroke-width="4.58333" stroke-linejoin="round" stroke-miterlimit="10" fill="none" fill-rule="evenodd"/><path d="M3158.81 643.623 4096.44 643.623" stroke="#FFFFFF" stroke-width="4.58333" stroke-linejoin="round" stroke-miterlimit="10" fill="none" fill-rule="evenodd"/><path d="M3158.81 829.724 4096.44 829.724" stroke="#FFFFFF" stroke-width="4.58333" stroke-linejoin="round" stroke-miterlimit="10" fill="none" fill-rule="evenodd"/><path d="M2923.4 1015.83 4096.44 1015.83" stroke="#FFFFFF" stroke-width="4.58333" stroke-linejoin="round" stroke-miterlimit="10" fill="none" fill-rule="evenodd"/><path d="M2925.69 138.382 2925.69 1239.29" stroke="#FFFFFF" stroke-width="4.58333" stroke-linejoin="round" stroke-miterlimit="10" fill="none" fill-rule="evenodd"/><path d="M4094.14 138.382 4094.14 1239.29" stroke="#FFFFFF" stroke-width="4.58333" stroke-linejoin="round" stroke-miterlimit="10" fill="none" fill-rule="evenodd"/><path d="M2923.4 140.673 4096.44 140.673" stroke="#FFFFFF" stroke-width="4.58333" stroke-linejoin="round" stroke-miterlimit="10" fill="none" fill-rule="evenodd"/><path d="M2923.4 1236.99 4096.44 1236.99" stroke="#FFFFFF" stroke-width="4.58333" stroke-linejoin="round" stroke-miterlimit="10" fill="none" fill-rule="evenodd"/><text fill="#FFFFFF" font-family="DengXian,DengXian_MSFontService,sans-serif" font-weight="700" font-size="28" transform="matrix(1 0 0 1 3877.9 216)">Location</text><text fill="#FFFFFF" font-family="DengXian,DengXian_MSFontService,sans-serif" font-weight="700" font-size="28" transform="matrix(1 0 0 1 3494.68 216)">Purpose/Function</text><text fill="#FFFFFF" font-family="DengXian,DengXian_MSFontService,sans-serif" font-weight="700" font-size="28" transform="matrix(1 0 0 1 3271.33 216)">Time</text><text fill="#FFFFFF" font-family="DengXian,DengXian_MSFontService,sans-serif" font-weight="700" font-size="28" transform="matrix(1 0 0 1 3014.18 216)">Date</text><text font-family="DengXian,DengXian_MSFontService,sans-serif" font-weight="400" font-size="28" transform="matrix(1 0 0 1 3804.85 358)">DoubleTree by Hilton </text><text font-family="DengXian,DengXian_MSFontService,sans-serif" font-weight="400" font-size="28" transform="matrix(1 0 0 1 3850.41 391)">Kuala Lumpur</text><text font-family="DengXian,DengXian_MSFontService,sans-serif" font-weight="400" font-size="28" transform="matrix(1 0 0 1 3477.2 358)">Academic/Committee </text><text font-family="DengXian,DengXian_MSFontService,sans-serif" font-weight="400" font-size="28" transform="matrix(1 0 0 1 3543.96 391)">Discussion</text><text font-family="DengXian,DengXian_MSFontService,sans-serif" font-weight="400" font-size="28" transform="matrix(1 0 0 1 3231.8 375)">08:00</text><text font-family="DengXian,DengXian_MSFontService,sans-serif" font-weight="400" font-size="28" transform="matrix(1 0 0 1 3295.39 375)">-</text><text font-family="DengXian,DengXian_MSFontService,sans-serif" font-weight="400" font-size="28" transform="matrix(1 0 0 1 3309.14 375)">12:00</text><text fill="#FFFFFF" font-family="DengXian,DengXian_MSFontService,sans-serif" font-weight="700" font-size="28" transform="matrix(1 0 0 1 2965.48 653)">10 July 2024</text><text font-family="DengXian,DengXian_MSFontService,sans-serif" font-weight="400" font-size="28" transform="matrix(1 0 0 1 3804.85 545)">DoubleTree by Hilton </text><text font-family="DengXian,DengXian_MSFontService,sans-serif" font-weight="400" font-size="28" transform="matrix(1 0 0 1 3850.41 578)">Kuala Lumpur</text><text font-family="DengXian,DengXian_MSFontService,sans-serif" font-weight="400" font-size="28" transform="matrix(1 0 0 1 3571.16 561)">Lunch</text><text font-family="DengXian,DengXian_MSFontService,sans-serif" font-weight="400" font-size="28" transform="matrix(1 0 0 1 3231.8 561)">12:00</text><text font-family="DengXian,DengXian_MSFontService,sans-serif" font-weight="400" font-size="28" transform="matrix(1 0 0 1 3295.39 561)">-</text><text font-family="DengXian,DengXian_MSFontService,sans-serif" font-weight="400" font-size="28" transform="matrix(1 0 0 1 3309.14 561)">13:30</text><text font-family="DengXian,DengXian_MSFontService,sans-serif" font-weight="400" font-size="28" transform="matrix(1 0 0 1 3804.85 731)">DoubleTree by Hilton </text><text font-family="DengXian,DengXian_MSFontService,sans-serif" font-weight="400" font-size="28" transform="matrix(1 0 0 1 3850.41 764)">Kuala Lumpur</text><g><text font-family="DengXian,DengXian_MSFontService,sans-serif" font-weight="400" font-size="28" transform="matrix(1 0 0 1 3454 731)">CMMM20244 Conference </text></g><text font-family="DengXian,DengXian_MSFontService,sans-serif" font-weight="400" font-size="28" transform="matrix(1 0 0 1 3487.5 764)">Committee Meeting</text><text font-family="DengXian,DengXian_MSFontService,sans-serif" font-weight="400" font-size="28" transform="matrix(1 0 0 1 3231.8 747)">14:00</text><text font-family="DengXian,DengXian_MSFontService,sans-serif" font-weight="400" font-size="28" transform="matrix(1 0 0 1 3295.39 747)">-</text><text font-family="DengXian,DengXian_MSFontService,sans-serif" font-weight="400" font-size="28" transform="matrix(1 0 0 1 3309.14 747)">15:00</text><text font-family="DengXian,DengXian_MSFontService,sans-serif" font-weight="400" font-size="28" transform="matrix(1 0 0 1 3804.85 917)">DoubleTree by Hilton </text><text font-family="DengXian,DengXian_MSFontService,sans-serif" font-weight="400" font-size="28" transform="matrix(1 0 0 1 3850.41 950)">Kuala Lumpur</text><g><text font-family="DengXian,DengXian_MSFontService,sans-serif" font-weight="400" font-size="28" transform="matrix(1 0 0 1 3461.16 900)">CMMM2024 Conference </text></g><text font-family="DengXian,DengXian_MSFontService,sans-serif" font-weight="400" font-size="28" transform="matrix(1 0 0 1 3497.25 933)">Closing/Certificate </text><text font-family="DengXian,DengXian_MSFontService,sans-serif" font-weight="400" font-size="28" transform="matrix(1 0 0 1 3537.36 966)">Distribution</text><text font-family="DengXian,DengXian_MSFontService,sans-serif" font-weight="400" font-size="28" transform="matrix(1 0 0 1 3231.8 933)">15:00</text><text font-family="DengXian,DengXian_MSFontService,sans-serif" font-weight="400" font-size="28" transform="matrix(1 0 0 1 3295.39 933)">-</text><text font-family="DengXian,DengXian_MSFontService,sans-serif" font-weight="400" font-size="28" transform="matrix(1 0 0 1 3309.14 933)">17:00</text><text font-family="DengXian,DengXian_MSFontService,sans-serif" font-weight="400" font-size="28" transform="matrix(1 0 0 1 3817.44 1104)">Universiti</text><text font-family="DengXian,DengXian_MSFontService,sans-serif" font-weight="400" font-size="28" transform="matrix(1 0 0 1 3933.17 1104)">Malaya &amp; </text><text font-family="DengXian,DengXian_MSFontService,sans-serif" font-weight="400" font-size="28" transform="matrix(1 0 0 1 3798.26 1137)">Universiti</text><text font-family="DengXian,DengXian_MSFontService,sans-serif" font-weight="400" font-size="28" transform="matrix(1 0 0 1 3913.99 1137)">Tunku</text><text font-family="DengXian,DengXian_MSFontService,sans-serif" font-weight="400" font-size="28" transform="matrix(1 0 0 1 3993.63 1137)">Abdul </text><text font-family="DengXian,DengXian_MSFontService,sans-serif" font-weight="400" font-size="28" transform="matrix(1 0 0 1 3883.33 1170)">Rahman</text><text font-family="DengXian,DengXian_MSFontService,sans-serif" font-weight="400" font-size="28" transform="matrix(1 0 0 1 3474.62 1087)">Visit Universiti Malaya, </text><text font-family="DengXian,DengXian_MSFontService,sans-serif" font-weight="400" font-size="28" transform="matrix(1 0 0 1 3472.9 1120)">Universiti Tunku Abdul </text><text font-family="DengXian,DengXian_MSFontService,sans-serif" font-weight="400" font-size="28" transform="matrix(1 0 0 1 3494.38 1153)">Rahman and Other </text><text font-family="DengXian,DengXian_MSFontService,sans-serif" font-weight="400" font-size="28" transform="matrix(1 0 0 1 3491.81 1186)">Academic Activities </text><text font-family="DengXian,DengXian_MSFontService,sans-serif" font-weight="400" font-size="28" transform="matrix(1 0 0 1 3278.78 1137)">TBC</text><g><text fill="#FFFFFF" font-family="DengXian,DengXian_MSFontService,sans-serif" font-weight="700" font-size="28" transform="matrix(1 0 0 1 2931.39 1137)">11 &amp; 12 July 2024</text></g></g></svg>